# xmcd
#
# Track frame offsets:
#	150
#	15564
#	27356
#	38488
#	46360
#	57049
#	73236
#	88476
#	98828
#	112834
#	129612
#
# Disc length: 1915 seconds
#
# Revision: 0
# Processed by: cddbd v1.5PL3 Copyright (c) Steve Scherf et al.
# Submitted via: dBpowerAMP V4.0
#
DISCID=8d07790b
DTITLE=The Concrete Cowboy Band  - Country Dance Music
DYEAR=1900
DGENRE=Country
TTITLE0=Rocky Top
TTITLE1=Cotton Eyed Joe
TTITLE2=Country Is The Closest Thing To Heaven(You Can Hear)
TTITLE3=Thank God I'm A Country Gal
TTITLE4=Louisiana Man
TTITLE5=Orange Blossom Special
TTITLE6=San Antonio Rose
TTITLE7=Cajun Stripper
TTITLE8=Texas(When I Die)
TTITLE9=Faded Love
TTITLE10=Concrete Cowboys
EXTD=Recorded In Nashville Tennessee sometime back in the 80's\nOnly Available On L.P. Record Bought New in Mexico. Very Good Music. 
EXTT0=
EXTT1=
EXTT2=
EXTT3=
EXTT4=
EXTT5=
EXTT6=
EXTT7=
EXTT8=
EXTT9=
EXTT10=
PLAYORDER=
